<svg xmlns="http://www.w3.org/2000/svg" xmlns:xlink="http://www.w3.org/1999/xlink" width="400" height="800" viewBox="0 0 400 800"><defs><style>.cls-1{fill:#fff1ed;}.cls-2{fill:url(#linear-gradient);}.cls-3{fill:url(#linear-gradient-2);}.cls-4{fill:url(#linear-gradient-3);}.cls-5{fill:url(#linear-gradient-4);}.cls-6{fill:url(#linear-gradient-5);}</style><linearGradient id="linear-gradient" x1="-98.21" y1="743.3" x2="298.21" y2="56.7" gradientUnits="userSpaceOnUse"><stop offset="0" stop-color="#cec2b8"/><stop offset="1" stop-color="#d7cbc2"/></linearGradient><linearGradient id="linear-gradient-2" x1="191.18" y1="809.7" x2="422.75" y2="408.6" gradientUnits="userSpaceOnUse"><stop offset="0" stop-color="#d0c5ba"/><stop offset="1" stop-color="#d7cbc2"/></linearGradient><linearGradient id="linear-gradient-3" x1="50" y1="86.6" x2="350" y2="-86.6" gradientUnits="userSpaceOnUse"><stop offset="0" stop-color="#d7cbc2"/><stop offset="1" stop-color="#f2e5de"/></linearGradient><linearGradient id="linear-gradient-4" x1="55" y1="364.97" x2="345" y2="364.97" gradientUnits="userSpaceOnUse"><stop offset="0" stop-color="#e0d7cf"/><stop offset="1" stop-color="#fff1ed"/></linearGradient><linearGradient id="linear-gradient-5" x1="-3.49" y1="482.45" x2="413.3" y2="241.82" gradientUnits="userSpaceOnUse"><stop offset="0" stop-color="#f2e5de"/><stop offset="1" stop-color="#d7cbc2"/></linearGradient></defs><g id="Layer_3" data-name="Layer 3"><rect id="Base" class="cls-1" width="400" height="800"/><rect id="Left" class="cls-2" width="200" height="800"/><path id="Bottom" class="cls-3" d="M400,800l-36.25-66.19A94,94,0,0,0,281.32,685H114.24a94,94,0,0,0-84.79,53.44L0,800Z"/><path id="Top" class="cls-4" d="M0,0,45.61,25.64A150.75,150.75,0,0,0,119.45,45h161.1a150.75,150.75,0,0,0,73.84-19.33L400,0Z"/><rect id="Main_02" data-name="Main 02" class="cls-5" x="55" y="19.97" width="290" height="690" rx="25"/><rect id="Main_01" data-name="Main 01" class="cls-6" x="63" y="27.97" width="274" height="674" rx="17"/></g></svg>