<svg xmlns="http://www.w3.org/2000/svg" xmlns:xlink="http://www.w3.org/1999/xlink" width="400" height="400" viewBox="0 0 400 400"><defs><style>.cls-1{fill:#90f25d;}.cls-2{fill:url(#linear-gradient);}.cls-3{fill:url(#linear-gradient-2);}.cls-4{fill:url(#linear-gradient-3);}.cls-5{fill:url(#linear-gradient-4);}.cls-6{fill:url(#linear-gradient-5);}</style><linearGradient id="linear-gradient" x1="-11.6" y1="393.3" x2="211.6" y2="6.7" gradientUnits="userSpaceOnUse"><stop offset="0" stop-color="#2f853c"/><stop offset="1" stop-color="#369846"/></linearGradient><linearGradient id="linear-gradient-2" x1="191.18" y1="409.7" x2="422.75" y2="8.6" gradientUnits="userSpaceOnUse"><stop offset="0" stop-color="#28713d"/><stop offset="1" stop-color="#369846"/></linearGradient><linearGradient id="linear-gradient-3" x1="50" y1="86.6" x2="350" y2="-86.6" gradientUnits="userSpaceOnUse"><stop offset="0" stop-color="#369846"/><stop offset="1" stop-color="#58d450"/></linearGradient><linearGradient id="linear-gradient-4" x1="55" y1="164.97" x2="345" y2="164.97" gradientUnits="userSpaceOnUse"><stop offset="0" stop-color="#3eac4f"/><stop offset="1" stop-color="#90f25d"/></linearGradient><linearGradient id="linear-gradient-5" x1="68.95" y1="240.63" x2="337.37" y2="85.66" gradientUnits="userSpaceOnUse"><stop offset="0" stop-color="#58d450"/><stop offset="1" stop-color="#369846"/></linearGradient></defs><g id="Layer_2" data-name="Layer 2"><rect id="Base" class="cls-1" width="400" height="400"/><rect id="Left" class="cls-2" width="200" height="400"/><path id="Bottom" class="cls-3" d="M400,400l-36.25-66.19A94,94,0,0,0,281.32,285H114.24a94,94,0,0,0-84.79,53.44L0,400Z"/><path id="Top" class="cls-4" d="M0,0,45.61,25.64A150.75,150.75,0,0,0,119.45,45h161.1a150.75,150.75,0,0,0,73.84-19.33L400,0Z"/><rect id="Main_02" data-name="Main 02" class="cls-5" x="55" y="19.97" width="290" height="290" rx="25"/><rect id="Main_01" data-name="Main 01" class="cls-6" x="63" y="27.97" width="274" height="274" rx="17"/></g></svg>