<svg xmlns="http://www.w3.org/2000/svg" xmlns:xlink="http://www.w3.org/1999/xlink" width="300" height="300" viewBox="0 0 300 300"><defs><style>.a{fill:#fbb03b;}.b{fill:#d68430;}.c{fill:#e59a35;}.d{fill:url(#a);}.e{fill:url(#b);}.f{fill:url(#c);}.g{fill:#1a1a1a;}</style><linearGradient id="a" x1="13.33" y1="70.34" x2="93.96" y2="-10.28" gradientUnits="userSpaceOnUse"><stop offset="0.07" stop-color="#e59a35"/><stop offset="0.34" stop-color="#de8e32"/><stop offset="0.61" stop-color="#e59a35"/></linearGradient><linearGradient id="b" x1="13.2" y1="230.99" x2="98.31" y2="306.86" gradientUnits="userSpaceOnUse"><stop offset="0.18" stop-color="#e59a35"/><stop offset="0.53" stop-color="#d68430"/></linearGradient><linearGradient id="c" x1="48.27" y1="150" x2="267.8" y2="150" gradientUnits="userSpaceOnUse"><stop offset="0" stop-color="#fbb03b"/><stop offset="1" stop-color="#d68430"/></linearGradient></defs><rect class="a" width="300" height="300"/><path class="b" d="M300,300s-21-24.56-47.39-29.51c-8.25-1.55-4.61-6.41,0-10.24a1.92,1.92,0,0,0-1.58-3.36c-18.21,3.41-61.76,10.72-101,10.92-29.36.14-80.87-18.94-117.45-.36C22.28,272.66,0,300,0,300Z"/><path class="c" d="M300,0s-3.82,16.11-32.56,32.55C242,47.13,173.8,32.19,150,32.19c-29.36,0-72.11-1.1-92.62,19.92S42.54,120.22,42.54,150c0,29.36,1.24,90.32-10,117.45C28.14,278.08,0,300,0,300V0Z"/><polygon class="d" points="0 0 53.32 114.02 114.02 53.32 0 0"/><polygon class="e" points="0 300 114.02 246.68 53.32 185.98 0 300"/><path class="a" d="M258.88,233.85a33.31,33.31,0,0,1-25,25c-17.67,4.07-46.6,8.94-83.87,8.94S83.8,263,66.14,258.89a33.34,33.34,0,0,1-25-25c-4.06-17.67-8.93-46.6-8.93-83.87S37,83.79,41.11,66.13a33.32,33.32,0,0,1,25-25c17.66-4.07,46.58-8.93,83.87-8.93s66.19,4.85,83.85,8.92a33.31,33.31,0,0,1,25,25c4.07,17.67,8.94,46.6,8.94,83.87S262.94,216.19,258.88,233.85Z"/><path class="f" d="M259.49,228.13a31.05,31.05,0,0,1-23.31,23.31c-16.47,3.79-43.42,8.32-78.15,8.32s-61.66-4.52-78.12-8.3a31.08,31.08,0,0,1-23.32-23.31c-3.79-16.47-8.32-43.43-8.32-78.15s4.53-61.68,8.32-78.14a31.05,31.05,0,0,1,23.3-23.31c16.46-3.78,43.4-8.31,78.14-8.31s61.67,4.52,78.13,8.3a31.05,31.05,0,0,1,23.31,23.31c3.79,16.47,8.33,43.43,8.33,78.15S263.28,211.67,259.49,228.13Z"/><path class="g" d="M117,174.05c0-12.33,7.37-21,19.39-26.15l-.15-.46c-10.82-5.1-15.48-13.52-15.48-21.94,0-15.48,13.07-26,30.21-26,18.93,0,28.4,11.88,28.4,24,0,8.27-4.06,17.13-16.08,22.84v.45c12.17,4.81,19.69,13.38,19.69,25.25,0,17-14.58,28.41-33.22,28.41C129.33,200.5,117,188.32,117,174.05Zm52.6-.61c0-11.87-8.26-17.58-21.49-21.34-11.42,3.31-17.58,10.82-17.58,20.14-.45,9.92,7.06,18.64,19.53,18.64C161.94,190.88,169.6,183.51,169.6,173.44ZM133.23,124.6c0,9.77,7.37,15,18.64,18,8.41-2.86,14.88-8.87,14.88-17.74,0-7.81-4.66-15.93-16.53-15.93C139.24,109,133.23,116.19,133.23,124.6Z"/></svg>