<svg xmlns="http://www.w3.org/2000/svg" xmlns:xlink="http://www.w3.org/1999/xlink" width="800" height="400" viewBox="0 0 800 400"><defs><style>.cls-1{fill:#d25cbf;}.cls-2{fill:url(#linear-gradient);}.cls-3{fill:url(#linear-gradient-2);}.cls-4{fill:url(#linear-gradient-3);}.cls-5{fill:url(#linear-gradient-4);}.cls-6{fill:url(#linear-gradient-5);}</style><linearGradient id="linear-gradient" x1="63.4" y1="436.6" x2="336.6" y2="-36.6" gradientUnits="userSpaceOnUse"><stop offset="0" stop-color="#652939"/><stop offset="1" stop-color="#783144"/></linearGradient><linearGradient id="linear-gradient-2" x1="375.66" y1="436.58" x2="790.39" y2="-281.75" gradientUnits="userSpaceOnUse"><stop offset="0" stop-color="#512127"/><stop offset="1" stop-color="#783144"/></linearGradient><linearGradient id="linear-gradient-3" x1="100" y1="173.21" x2="700" y2="-173.21" gradientUnits="userSpaceOnUse"><stop offset="0" stop-color="#783144"/><stop offset="1" stop-color="#b44d83"/></linearGradient><linearGradient id="linear-gradient-4" x1="55" y1="164.97" x2="745" y2="164.97" gradientUnits="userSpaceOnUse"><stop offset="0" stop-color="#8c3a50"/><stop offset="1" stop-color="#d25cbf"/></linearGradient><linearGradient id="linear-gradient-5" x1="143.49" y1="313.07" x2="668.88" y2="9.73" gradientUnits="userSpaceOnUse"><stop offset="0" stop-color="#b44d83"/><stop offset="1" stop-color="#783144"/></linearGradient></defs><g id="Layer_4" data-name="Layer 4"><rect id="Base" class="cls-1" width="800" height="400"/><rect id="Left" class="cls-2" width="400" height="400"/><path id="Bottom" class="cls-3" d="M800,400l-36.25-66.19A94,94,0,0,0,681.32,285H114.24a94,94,0,0,0-84.79,53.44L0,400Z"/><path id="Top" class="cls-4" d="M0,0,45.61,25.64A150.75,150.75,0,0,0,119.45,45h561.1a150.75,150.75,0,0,0,73.84-19.33L800,0Z"/><rect id="Main_02" data-name="Main 02" class="cls-5" x="55" y="19.97" width="690" height="290" rx="25"/><rect id="Main_01" data-name="Main 01" class="cls-6" x="63" y="27.97" width="674" height="274" rx="17"/></g></svg>