<svg xmlns="http://www.w3.org/2000/svg" width="7cm" height="7cm" viewBox="0 0 198.43 198.43"><defs><style>.a{fill:#81b29a;}</style></defs><path class="a" d="M157.16,91.16C156.6,80,152.9,71.15,147,66.94c-4.51-3.21-10.81-4.22-18.74-3a64.12,64.12,0,0,0-16.17,5c-.86.42-2.19,1.06-3.73,1.9C102.05,74.31,97.85,78.07,95.88,82a11.5,11.5,0,0,0-1.32,5,14.5,14.5,0,0,0,.93,4.75,12.2,12.2,0,0,0,2.46,4,11.13,11.13,0,0,0,.94.88c6,5,16.9,4.38,26.59-1.57a1.5,1.5,0,0,1,1.57,2.56c-10.17,6.24-21.75,7.07-28.86,2.23a30.92,30.92,0,0,0-4.58,7.93A31.51,31.51,0,0,0,92,124.66a1.5,1.5,0,0,1-1.22,1.74l-.26,0A1.49,1.49,0,0,1,89,125.18a34.5,34.5,0,0,1,1.82-18.46A34.05,34.05,0,0,1,95.89,98l-.12-.12a14.47,14.47,0,0,1-1.59-2,9.74,9.74,0,0,1-2.67,3,9.4,9.4,0,0,1-1.71,1,15.72,15.72,0,0,1-1.14,8.16,16.13,16.13,0,0,1-8.49,8.29c-6.31,2.46-14.35.27-21-5.72a1.5,1.5,0,0,1,2-2.23c5.79,5.23,12.65,7.2,17.89,5.15A12.63,12.63,0,0,0,86.67,99c-1.34-7.68-7.81-15-9.94-17.39-3.67-4.16-9.8-11.1-19.46-11.48l-.78,0c-4.41-.13-7.74.72-10.15,2.6-12,9.36.7,43.21.83,43.55,4.75,12.58,13.61,36,37.62,42.85,26,7.41,47.63-10.71,50-12.8C151.43,131.73,158,108.11,157.16,91.16ZM56.64,105.43a1.53,1.53,0,0,1-1,.39,1.49,1.49,0,0,1-1.1-.48,9.86,9.86,0,0,1-1.06-1.55l-.28-.47a1.5,1.5,0,0,1,2.51-1.64c.1.16.22.36.35.59a8.15,8.15,0,0,0,.69,1A1.5,1.5,0,0,1,56.64,105.43Zm52.15-42.07A22.41,22.41,0,0,1,109.2,67l1.61-.78a67.23,67.23,0,0,1,15.77-5,25.93,25.93,0,0,0-.55-6C124.61,48.6,119.5,38,111.84,37.57a11.3,11.3,0,0,0-10.45,5.93,10,10,0,0,0-.91,5.4A27.14,27.14,0,0,1,108.79,63.36Zm-17,5.88a34.33,34.33,0,0,1,3.41,8.26,36.51,36.51,0,0,1,11-8.86,19.38,19.38,0,0,0-.34-4.7,24.1,24.1,0,0,0-7.8-13.21c-3.27-2.81-6.91-4.18-10.28-3.84a12.44,12.44,0,0,0-10,7A11,11,0,0,0,77,56.57C84.67,58.72,89.54,65.34,91.81,69.24ZM79,79.61c2.11,2.38,8.18,9.25,10.24,17,.18-.11.38-.2.55-.32a8.14,8.14,0,0,0,2.74-4A17.25,17.25,0,0,1,91.56,87,14.7,14.7,0,0,1,93,81.17a32,32,0,0,0-3.75-10.42c-2.15-3.69-6.84-10.08-14.15-11.57a14.63,14.63,0,0,0-2.18-.29c-5.08-.3-9.25,1.23-12.06,4.43a12.63,12.63,0,0,0-2.31,3.91C68.8,68.13,75.38,75.55,79,79.61Z"/></svg>