<svg xmlns="http://www.w3.org/2000/svg" width="7cm" height="7cm" viewBox="0 0 198.43 198.43"><defs><style>.a{fill:#e07a5f;}</style></defs><path class="a" d="M146.66,98.47c-4.84-5.32-14-6.9-25.86-4.45l-.3.06c-9.79,2-20.84,8.56-24.3,15l-.06.09a7.82,7.82,0,0,0-1,4.46c.82,7.07,8.35,10.21,15.38,9.66a21.67,21.67,0,0,0,10.38-3.61,1.5,1.5,0,1,1,1.94,2.29c-1.82,1.54-6.77,3.9-12.09,4.31s-10.62-1-14.28-4.14A48.79,48.79,0,0,0,94.14,128a48.06,48.06,0,0,0-2.23,18.24,1.51,1.51,0,0,1-1.39,1.6h-.11a1.49,1.49,0,0,1-1.49-1.4A51,51,0,0,1,91.29,127c.45-1.4,1-2.78,1.54-4.13A11.18,11.18,0,0,1,89,124.6c.94,3.86.81,7.38-1.17,9.61-6,6.71-14.69,5.87-23.94-2.29a1.5,1.5,0,0,1,2-2.25c4.6,4.06,13.27,9.79,19.71,2.55,2.81-3.16-.81-13.89-7.16-21.27-7.18-8.33-19.78-14.67-25.88-10.7-4.75,3.1-6,12.65-3.55,27.61,2.36,14.53,7,30.74,23.19,40.84,18,11.17,43.8,9.09,57.64-4.64C146.77,147.28,156.51,109.27,146.66,98.47ZM60.21,126.38a1.51,1.51,0,0,1-2.12,0c-.42-.45-.84-.9-1.25-1.36a1.5,1.5,0,0,1,2.24-2c.39.44.78.87,1.18,1.29A1.5,1.5,0,0,1,60.21,126.38Zm60-35.3a53.19,53.19,0,0,1,10.7-1.17c.78-6.9,1.62-13.47,2.37-19.31,3.36-26.23,5.58-43.56-3.55-45.13-8.77-1.51-11.44,10.79-16.64,38.74C111.34,73.54,109.38,84,106.75,96a48.51,48.51,0,0,1,13.15-4.86ZM76.74,87c7.9,2.88,14.1,10.86,15.3,12.49a28.47,28.47,0,0,1,3.26,5.6,33.35,33.35,0,0,1,7.87-7c-1.55-9.56-2.84-18.44-4-26.28-4.73-32.59-7.35-50.52-17.62-49.25-8.36,1.05-8.19,9.79-6.45,34.93C75.69,65.61,76.37,75.6,76.74,87Zm4,22a42.9,42.9,0,0,1,7.43,12.75,8.52,8.52,0,0,0,3.07-1.36,5.92,5.92,0,0,0,2-2.45,13,13,0,0,1-1.12-4,10.38,10.38,0,0,1,1.13-5.67,23.38,23.38,0,0,0-3.65-7c-3.2-4.33-9-10-14.79-11.76a10.57,10.57,0,0,0-11.17,2.76,9,9,0,0,0-2.44,4.2C68.37,98.11,76.1,103.61,80.74,109Z"/></svg>