<svg xmlns="http://www.w3.org/2000/svg" width="7cm" height="7cm" viewBox="0 0 198.43 198.43"><path d="M59,88.06c-11.48-41.62-3.94-55.77,2.33-57.58a3.41,3.41,0,0,1,3,.52C70.24,35,75,54.46,78.48,88.87V89c.07,2,.14,4.07.23,6.14a70,70,0,0,0-15.62,3.64q-2.16-5.72-4-10.62h0Z"/><path d="M81.48,88.8c-1.16-37.31,1.43-59.51,7.7-66A5.37,5.37,0,0,1,93.11,21a5.52,5.52,0,0,1,4,1.7c7.22,7.22,7.15,34.94,7.06,73.3v.64A74.63,74.63,0,0,0,81.7,94.9q-.12-3-.21-5.87a1.28,1.28,0,0,0,0-.19Z"/><path d="M161.12,93.91c-9.66-2.42-17,4.67-22.93,10.36a52.1,52.1,0,0,1-5.41,4.79v.07l-1,.58-.4.23c-1.58.86-4,1.31-7,1.87-4.66.87-11,2.06-17.35,5.45-5,2.7-11.35,7.81-12.82,16.82v.12a1.53,1.53,0,0,1-1.66,1.36,1.47,1.47,0,0,1-1.34-1.62,2.17,2.17,0,0,1,0-.25c1.77-10.85,9.76-16.6,14.38-19.07,6.72-3.61,13.36-4.85,18.21-5.75a27.32,27.32,0,0,0,6-1.52c4.46-41.62,7-71.69.21-79.92a5.88,5.88,0,0,0-4.28-2.25,6.58,6.58,0,0,0-5,1.62c-7.53,6.45-9.35,30.26-11.88,63.21-.19,2.49-.38,5-.59,7.65,1,.31,2.11.64,3.27,1a1.5,1.5,0,1,1-1,2.84c-1.54-.52-2.91-.93-4.29-1.31l-1-.26a71.42,71.42,0,0,0-24.48-2H80.7l-.23,0a67.27,67.27,0,0,0-8.53,1.36,68.54,68.54,0,0,0-9.2,2.76h0c-.27.09-.51.18-.75.28q-3.16,1.23-6.12,2.72a1.5,1.5,0,1,1-1.35-2.68c1.88-.94,3.82-1.8,5.77-2.58l-4-10.6,0-.06v0l0-.08c-8.2-21.46-12.44-30.79-17.46-33-1.78-.79-3.75-.69-6.41.34-6.95,2.69-1.55,21.1,5.28,44.41,1.4,4.77,2.85,9.71,4.31,14.9,8.62,30.63,20.45,63.18,52.1,61.7l2.6-.11c15.3-.68,29.75-1.31,41.27-15.43,4.31-5.27,5.37-9.37,6.61-14.13A55.83,55.83,0,0,1,154,127c2.17-3.09,4.28-6,6.15-8.5,5.21-7.09,9.34-12.69,9.23-15.61C169.2,98.7,165,94.86,161.12,93.91ZM49.89,108.7c-.63.31-1.2.61-1.73.9a1.54,1.54,0,0,1-.72.18,1.5,1.5,0,0,1-.71-2.82c.56-.3,1.17-.62,1.84-.95a1.5,1.5,0,1,1,1.32,2.69Zm43.59,38.69a1.52,1.52,0,0,1-.51.09,1.5,1.5,0,0,1-1.41-1,16.37,16.37,0,0,1-.74-5.12,1.51,1.51,0,0,1,1.5-1.51,1.5,1.5,0,0,1,1.5,1.49,13.44,13.44,0,0,0,.57,4.13A1.5,1.5,0,0,1,93.48,147.39Z"/></svg>