<svg xmlns="http://www.w3.org/2000/svg" width="7.5cm" height="7.5cm" viewBox="0 0 212.6 212.6"><defs><style>.a{fill:#565a81;}</style></defs><path class="a" d="M57.65,113.77a1.5,1.5,0,0,1-.68,2q-.94.47-1.74.9a1.5,1.5,0,0,1-2-.6,1.51,1.51,0,0,1,.61-2c.56-.3,1.17-.62,1.83-1A1.5,1.5,0,0,1,57.65,113.77Z"/><path class="a" d="M100.55,154.47a1.43,1.43,0,0,1-.5.09,1.48,1.48,0,0,1-1.41-1,16.08,16.08,0,0,1-.74-5.12,1.5,1.5,0,0,1,1.49-1.51h0a1.51,1.51,0,0,1,1.5,1.49,13.48,13.48,0,0,0,.56,4.13A1.49,1.49,0,0,1,100.55,154.47Z"/><path class="a" d="M0,0V212.6H212.6V0ZM49,122.79c-1.46-5.19-2.9-10.13-4.3-14.9C37.85,84.58,32.45,66.17,39.4,63.48c2.65-1,4.63-1.13,6.41-.34,5,2.23,9.26,11.56,17.46,33l0,.1h0l0,.06,4,10.61c-1.95.78-3.89,1.64-5.76,2.58a1.51,1.51,0,0,0-.67,2,1.49,1.49,0,0,0,1.34.82,1.44,1.44,0,0,0,.67-.16c2-1,4-1.89,6.13-2.72.23-.1.48-.19.75-.28A67.81,67.81,0,0,1,79,106.44a66.85,66.85,0,0,1,8.54-1.36l.22,0h.14a71.42,71.42,0,0,1,24.48,2l1,.26c1.81.49,3.32,1,4.3,1.31a1.49,1.49,0,0,0,1.9-.94,1.5,1.5,0,0,0-.94-1.9c-.79-.26-1.92-.63-3.27-1,.2-2.6.4-5.16.59-7.65,1.52-19.88,2.84-37.05,5.38-48.54,2.59-11.68,6.13-16.72,11.51-16.29a5.92,5.92,0,0,1,4.29,2.25c6.84,8.24,4.25,38.3-.21,79.92a27.48,27.48,0,0,1-6,1.52c-4.85.9-11.5,2.14-18.22,5.75-4.61,2.47-12.61,8.22-14.36,19l1.48.24-1.5-.13,0,.22a1.46,1.46,0,0,0,1.32,1.63,1.52,1.52,0,0,0,1.67-1.35l0-.13c1.47-9,7.78-14.12,12.82-16.82,6.31-3.39,12.69-4.58,17.35-5.45,3-.56,5.42-1,7-1.88l.38-.21,1-.59v-.07a54.25,54.25,0,0,0,5.41-4.79c5.91-5.69,13.27-12.77,22.93-10.36,3.85,1,8.07,4.79,8.23,9,.1,2.92-4,8.52-9.24,15.61-1.86,2.54-4,5.41-6.15,8.5a56,56,0,0,0-9.48,20.75c-1.23,4.76-2.3,8.86-6.6,14.13-11.53,14.12-26,14.76-41.28,15.43l-2.59.11C69.47,186,57.61,153.42,49,122.79ZM71.46,38.08C77.32,42,82.06,61.54,85.55,96v.16c.07,2,.14,4.07.22,6.14a70.33,70.33,0,0,0-15.62,3.64q-2.16-5.72-4-10.62v0l0-.11c-11.48-41.62-3.95-55.77,2.32-57.58A3.4,3.4,0,0,1,71.46,38.08Zm28.72-10h0a5.43,5.43,0,0,1,4,1.71c7.22,7.21,7.16,34.93,7.06,73.29v.64A74.54,74.54,0,0,0,88.78,102c-.08-2-.16-4-.22-5.87v-.23c-1.16-37.31,1.43-59.51,7.69-66A5.38,5.38,0,0,1,100.18,28.05Z"/><path class="a" d="M101.46,152.56a13.48,13.48,0,0,1-.56-4.13,1.51,1.51,0,0,0-1.5-1.49h0a1.5,1.5,0,0,0-1.49,1.51,16.08,16.08,0,0,0,.74,5.12,1.48,1.48,0,0,0,1.41,1,1.43,1.43,0,0,0,.5-.09A1.49,1.49,0,0,0,101.46,152.56Z"/><path class="a" d="M55.64,113.09c-.66.33-1.27.65-1.83,1a1.51,1.51,0,0,0-.61,2,1.5,1.5,0,0,0,2,.6q.8-.44,1.74-.9a1.5,1.5,0,0,0-1.33-2.69Z"/></svg>