<svg xmlns="http://www.w3.org/2000/svg" width="7cm" height="7cm" viewBox="0 0 198.43 198.43"><defs><style>.a{fill:#f4f1de;}</style></defs><path class="a" d="M151.2,64c0-6.6-2.1-13.2-6.3-20s-10.4-12.3-18.5-16.8c-8.1-4.4-17.6-6.6-28.4-6.6c-10,0-18.9,1.9-26.6,5.6
	c-7.2,3.3-13.4,8.5-17.8,15.1c-4.1,6.1-6.3,13.4-6.3,20.8c-0.1,5.4,1.1,10.7,3.6,15.5c2.2,4.2,5.1,8.1,8.5,11.5
	c3.3,3.2,9.2,8.6,17.7,16.3c2,1.8,3.9,3.7,5.7,5.7c1.2,1.4,2.3,2.9,3.2,4.5c0.7,1.3,1.2,2.7,1.6,4.1c0.4,1.3,0.9,3.7,1.7,7.1
	c1.3,7.2,5.5,10.8,12.4,10.8c3.4,0.1,6.7-1.2,9.1-3.5c2.5-2.4,3.7-5.9,3.7-10.5c0.3-9.7-3.3-19.2-9.9-26.3c-3.8-4-7.9-7.9-12.1-11.5
	c-4.4-3.9-7.6-6.8-9.6-8.8c-2-2-3.7-4.2-5-6.6c-1.3-2.4-2-5.1-2-7.9c-0.1-5.3,2.2-10.5,6.2-14c4.1-3.8,9.5-5.7,16-5.7
	c7.6,0,13.2,1.9,16.8,5.8c3.6,3.8,6.7,9.5,9.1,17c2.3,7.8,6.8,11.7,13.4,11.7c3.7,0.1,7.3-1.4,9.8-4.1
	C149.7,70.6,151.1,67.4,151.2,64z M100.4,177.9c4.1,0.1,8-1.4,11.1-4.1c3.2-2.7,4.7-6.6,4.7-11.5c0.1-4.1-1.6-8.1-4.6-11
	c-3-3-7-4.6-11.2-4.5c-8.4-0.1-15.4,6.6-15.5,15.1c0,0.1,0,0.3,0,0.4c0,4.8,1.6,8.7,4.7,11.4C92.6,176.4,96.4,177.9,100.4,177.9z"/></svg>