<svg xmlns="http://www.w3.org/2000/svg" width="7cm" height="7cm" viewBox="0 0 198.43 198.43"><defs><style>.a{fill:#f4f1de;}</style></defs><path class="a" d="M47.25,64q0-9.87,6.34-20t18.5-16.79q12.15-6.64,28.37-6.65,15.06,0,26.61,5.56a43.18,43.18,0,0,1,17.82,15.12A37.11,37.11,0,0,1,151.18,62a32.11,32.11,0,0,1-3.59,15.48A47.49,47.49,0,0,1,139.07,89q-4.94,4.83-17.72,16.26a71.28,71.28,0,0,0-5.66,5.66,22.57,22.57,0,0,0-3.17,4.47,21.48,21.48,0,0,0-1.62,4.06q-.57,2-1.71,7.12-2,10.8-12.37,10.8a12.62,12.62,0,0,1-9.09-3.53Q84,130.3,84,123.32A36.82,36.82,0,0,1,93.91,97,165.94,165.94,0,0,1,106,85.49q6.65-5.82,9.61-8.78a29.4,29.4,0,0,0,5-6.6,15.94,15.94,0,0,0,2-7.9,18.38,18.38,0,0,0-6.19-14q-6.18-5.72-16-5.71-11.43,0-16.84,5.77t-9.14,17Q70.94,77,61.07,77a13.2,13.2,0,0,1-9.82-4.1A12.55,12.55,0,0,1,47.25,64ZM98,177.89a16.34,16.34,0,0,1-11.07-4.11q-4.74-4.11-4.73-11.48a14.79,14.79,0,0,1,4.57-11A15.45,15.45,0,0,1,98,146.81a15.27,15.27,0,0,1,15.48,15.49q0,7.27-4.68,11.43A15.77,15.77,0,0,1,98,177.89Z"/></svg>