<svg xmlns="http://www.w3.org/2000/svg" width="7cm" height="7cm" viewBox="0 0 198.43 198.43"><path d="M139.41,88.06c11.48-41.62,3.94-55.77-2.33-57.58a3.41,3.41,0,0,0-3,.52c-5.85,4-10.6,23.46-14.09,57.87V89c-.07,2-.14,4.07-.23,6.14a70,70,0,0,1,15.62,3.64q2.16-5.72,4-10.62h0Z"/><path d="M117,88.8c1.16-37.31-1.43-59.51-7.7-66A5.37,5.37,0,0,0,105.32,21a5.52,5.52,0,0,0-4,1.7c-7.22,7.22-7.15,34.94-7.06,73.3v.64a74.63,74.63,0,0,1,22.5-1.71q.12-3,.21-5.87a1.28,1.28,0,0,1,0-.19Z"/><path d="M29.08,102.88c-.11,2.92,4,8.52,9.23,15.61,1.87,2.54,4,5.41,6.15,8.5a55.83,55.83,0,0,1,9.48,20.75c1.24,4.76,2.3,8.86,6.61,14.13,11.52,14.12,26,14.75,41.27,15.43l2.6.11c31.65,1.48,43.48-31.07,52.1-61.7,1.46-5.19,2.91-10.13,4.31-14.9,6.83-23.31,12.23-41.72,5.28-44.41-2.66-1-4.63-1.13-6.41-.34-5,2.23-9.26,11.56-17.46,33l0,.08v0l0,.06-4,10.6c1.95.78,3.89,1.64,5.77,2.58a1.5,1.5,0,0,1-1.35,2.68q-3-1.49-6.12-2.72c-.24-.1-.48-.19-.75-.28h0a68.54,68.54,0,0,0-9.2-2.76A67.27,67.27,0,0,0,118,98l-.23,0h-.14a71.42,71.42,0,0,0-24.48,2l-1,.26c-1.38.38-2.75.79-4.29,1.31a1.5,1.5,0,0,1-1-2.84c1.16-.39,2.22-.72,3.27-1-.21-2.6-.4-5.16-.59-7.65C87,57.06,85.18,33.25,77.65,26.8a6.58,6.58,0,0,0-5-1.62,5.88,5.88,0,0,0-4.28,2.25c-6.84,8.23-4.25,38.3.21,79.92a27.32,27.32,0,0,0,6,1.52c4.85.9,11.49,2.14,18.21,5.75,4.62,2.47,12.61,8.22,14.38,19.07a2.17,2.17,0,0,1,0,.25,1.47,1.47,0,0,1-1.34,1.62,1.53,1.53,0,0,1-1.66-1.36v-.12c-1.47-9-7.79-14.12-12.82-16.82-6.32-3.39-12.69-4.58-17.35-5.45-3-.56-5.43-1-7-1.87l-.4-.23-1-.58v-.07a52.1,52.1,0,0,1-5.41-4.79C54.33,98.58,47,91.49,37.31,93.91,33.46,94.86,29.23,98.7,29.08,102.88Zm118.77,3.81a1.51,1.51,0,0,1,2-.68c.67.33,1.28.65,1.84.95a1.5,1.5,0,0,1-.71,2.82,1.54,1.54,0,0,1-.72-.18c-.53-.29-1.1-.59-1.73-.9A1.5,1.5,0,0,1,147.85,106.69ZM104,145.48a13.44,13.44,0,0,0,.57-4.13,1.5,1.5,0,0,1,1.5-1.49,1.51,1.51,0,0,1,1.5,1.51,16.37,16.37,0,0,1-.74,5.12,1.5,1.5,0,0,1-1.41,1,1.52,1.52,0,0,1-.51-.09A1.5,1.5,0,0,1,104,145.48Z"/></svg>