<svg xmlns="http://www.w3.org/2000/svg" width="7cm" height="7cm" viewBox="0 0 198.43 198.43"><defs><style>.a{fill:#e07a5f;}</style></defs><path class="a" d="M68.56,164.06c13.84,13.73,39.69,15.81,57.64,4.64,16.23-10.1,20.83-26.31,23.19-40.84,2.43-15,1.2-24.51-3.55-27.61-6.1-4-18.7,2.37-25.88,10.7-6.35,7.38-10,18.11-7.16,21.27,6.44,7.24,15.11,1.51,19.71-2.55a1.5,1.5,0,1,1,2,2.25c-9.25,8.16-18,9-23.94,2.29-2-2.23-2.11-5.75-1.17-9.61a11.18,11.18,0,0,1-3.79-1.69c.57,1.35,1.09,2.73,1.54,4.13a51,51,0,0,1,2.37,19.37,1.49,1.49,0,0,1-1.49,1.4h-.11a1.51,1.51,0,0,1-1.39-1.6A48.06,48.06,0,0,0,104.29,128a48.79,48.79,0,0,0-2.32-5.83c-3.66,3.19-9.09,4.55-14.28,4.14S77.42,123.51,75.6,122a1.5,1.5,0,1,1,1.94-2.29,21.67,21.67,0,0,0,10.38,3.61c7,.55,14.56-2.59,15.38-9.66a7.82,7.82,0,0,0-1-4.46l-.06-.09c-3.46-6.44-14.51-13-24.3-15l-.3-.06c-11.84-2.45-21-.87-25.86,4.45C41.92,109.27,51.66,147.28,68.56,164.06Zm69.61-39.8c.4-.42.79-.85,1.18-1.29a1.5,1.5,0,0,1,2.24,2c-.41.46-.83.91-1.25,1.36a1.51,1.51,0,0,1-2.12,0A1.5,1.5,0,0,1,138.17,124.26ZM78.53,91.14A48.51,48.51,0,0,1,91.68,96c-2.63-12-4.59-22.46-6.32-31.79C80.16,36.26,77.49,24,68.72,25.47,59.59,27,61.81,44.37,65.17,70.6c.75,5.84,1.59,12.41,2.37,19.31a53.19,53.19,0,0,1,10.7,1.17Zm44.77-33.6c1.74-25.14,1.91-33.88-6.45-34.93C106.58,21.34,104,39.27,99.23,71.86c-1.13,7.84-2.42,16.72-4,26.28a33.35,33.35,0,0,1,7.87,7,28.47,28.47,0,0,1,3.26-5.6c1.2-1.63,7.4-9.61,15.3-12.49C122.06,75.6,122.74,65.61,123.3,57.54Zm13.9,38.95a9,9,0,0,0-2.44-4.2,10.57,10.57,0,0,0-11.17-2.76C117.79,91.28,112,97,108.8,101.29a23.38,23.38,0,0,0-3.65,7,10.38,10.38,0,0,1,1.13,5.67,13,13,0,0,1-1.12,4,5.92,5.92,0,0,0,2,2.45,8.52,8.52,0,0,0,3.07,1.36A42.9,42.9,0,0,1,117.69,109C122.33,103.61,130.06,98.11,137.2,96.49Z"/></svg>