<svg xmlns="http://www.w3.org/2000/svg" width="7cm" height="7cm" viewBox="0 0 198.43 198.43"><defs><style>.a{fill:#81b29a;}</style></defs><path class="a" d="M63.62,146.3c2.38,2.09,24,20.21,50,12.8,24-6.86,32.87-30.27,37.62-42.85.13-.34,12.83-34.19.83-43.55-2.41-1.88-5.74-2.73-10.15-2.6l-.78,0c-9.66.38-15.79,7.32-19.46,11.48-2.13,2.4-8.6,9.71-9.94,17.39a12.63,12.63,0,0,0,7.59,14.35c5.24,2.05,12.1.08,17.89-5.15a1.5,1.5,0,0,1,2,2.23c-6.64,6-14.68,8.18-21,5.72a16.13,16.13,0,0,1-8.49-8.29,15.72,15.72,0,0,1-1.14-8.16,9.4,9.4,0,0,1-1.71-1,9.74,9.74,0,0,1-2.67-3,14.47,14.47,0,0,1-1.59,2l-.12.12a34.05,34.05,0,0,1,5.07,8.76,34.5,34.5,0,0,1,1.82,18.46,1.49,1.49,0,0,1-1.47,1.24l-.26,0a1.5,1.5,0,0,1-1.22-1.74,31.51,31.51,0,0,0-1.66-16.85,30.92,30.92,0,0,0-4.58-7.93c-7.11,4.84-18.69,4-28.86-2.23a1.5,1.5,0,0,1,1.57-2.56c9.69,6,20.63,6.6,26.59,1.57a11.13,11.13,0,0,0,.94-.88,12.2,12.2,0,0,0,2.46-4,14.5,14.5,0,0,0,.93-4.75,11.5,11.5,0,0,0-1.32-5c-2-4-6.17-7.71-12.49-11.17-1.54-.84-2.87-1.48-3.73-1.9a64.12,64.12,0,0,0-16.17-5c-7.93-1.23-14.23-.22-18.74,3-5.89,4.21-9.59,13-10.15,24.22C40.41,108.11,47,131.73,63.62,146.3Zm78.07-43a8.15,8.15,0,0,0,.69-1c.13-.23.25-.43.35-.59a1.5,1.5,0,0,1,2.51,1.64l-.28.47a9.86,9.86,0,0,1-1.06,1.55,1.49,1.49,0,0,1-1.1.48,1.53,1.53,0,0,1-1-.39A1.5,1.5,0,0,1,141.69,103.31ZM97.94,48.9A10,10,0,0,0,97,43.5a11.3,11.3,0,0,0-10.45-5.93c-7.66.45-12.77,11-14.19,17.59a25.93,25.93,0,0,0-.55,6,67.23,67.23,0,0,1,15.77,5l1.61.78a22.41,22.41,0,0,1,.41-3.67A27.14,27.14,0,0,1,97.94,48.9Zm23.48,7.67a11,11,0,0,0-.76-2.66,12.44,12.44,0,0,0-10-7c-3.37-.34-7,1-10.28,3.84a24.1,24.1,0,0,0-7.8,13.21,19.38,19.38,0,0,0-.34,4.7,36.51,36.51,0,0,1,11,8.86,34.33,34.33,0,0,1,3.41-8.26C108.88,65.34,113.75,58.72,121.42,56.57ZM139.9,67.23a12.63,12.63,0,0,0-2.31-3.91c-2.81-3.2-7-4.73-12.06-4.43a14.63,14.63,0,0,0-2.18.29c-7.31,1.49-12,7.88-14.15,11.57a32,32,0,0,0-3.75,10.42A14.7,14.7,0,0,1,106.86,87a17.25,17.25,0,0,1-.94,5.29,8.14,8.14,0,0,0,2.74,4c.17.12.37.21.55.32,2.06-7.78,8.13-14.65,10.24-17C123,75.55,129.62,68.13,139.9,67.23Z"/></svg>