<svg xmlns="http://www.w3.org/2000/svg" width="7.5cm" height="7.5cm" viewBox="0 0 212.6 212.6"><defs><style>.a{fill:#565a81;}</style></defs><path class="a" d="M0,0V212.6H212.6V0ZM91.86,166.19c-24-6.86-32.87-30.27-37.63-42.85C54.1,123,41.4,89.15,53.4,79.79c2.42-1.88,5.75-2.73,10.16-2.6l.77,0C74,77.59,80.12,84.54,83.8,88.7c2.12,2.4,8.59,9.7,9.93,17.39a12.63,12.63,0,0,1-7.59,14.35c-5.24,2-12.09.08-17.89-5.15a1.5,1.5,0,0,0-2,2.22c6.65,6,14.69,8.19,21,5.73A16.12,16.12,0,0,0,95.72,115a15.72,15.72,0,0,0,1.14-8.16,9.08,9.08,0,0,0,1.71-1,9.82,9.82,0,0,0,2.68-3,13.36,13.36,0,0,0,1.59,2.05l.12.12a33.8,33.8,0,0,0-5.08,8.76,34.5,34.5,0,0,0-1.82,18.46,1.5,1.5,0,0,0,1.48,1.24l.26,0A1.51,1.51,0,0,0,99,131.75a31.41,31.41,0,0,1,1.66-16.85,30.75,30.75,0,0,1,4.58-7.93c7.1,4.84,18.69,4,28.85-2.23a1.5,1.5,0,1,0-1.57-2.56c-9.69,5.95-20.62,6.6-26.59,1.57a11,11,0,0,1-.93-.88,12,12,0,0,1-2.46-4,14.22,14.22,0,0,1-.93-4.75,11.62,11.62,0,0,1,1.31-5c2-4,6.18-7.71,12.49-11.17,1.55-.84,2.87-1.48,3.74-1.9a63.64,63.64,0,0,1,16.17-5c7.92-1.23,14.23-.22,18.74,3,5.89,4.21,9.59,13,10.15,24.22.85,17-5.74,40.57-22.36,55.14C139.49,155.48,117.83,173.6,91.86,166.19ZM80,66a14.81,14.81,0,0,1,2.18.29c7.3,1.49,12,7.88,14.15,11.57A32,32,0,0,1,100,88.26a14.7,14.7,0,0,0-1.41,5.85,17.29,17.29,0,0,0,.94,5.29,8.09,8.09,0,0,1-2.75,4c-.16.11-.36.21-.55.32C94.21,96,88.14,89.08,86,86.7c-3.59-4.06-10.17-11.48-20.45-12.39a12.32,12.32,0,0,1,2.31-3.9C70.71,67.21,74.88,65.68,80,66ZM118.9,44.66c7.66.45,12.77,11,14.19,17.59a25.41,25.41,0,0,1,.56,6,66.82,66.82,0,0,0-15.78,5l-1.6.78a22.41,22.41,0,0,0-.41-3.67A27.09,27.09,0,0,0,107.54,56a10,10,0,0,1,.92-5.4A11.28,11.28,0,0,1,118.9,44.66Zm-6,26.37a19.89,19.89,0,0,1,.34,4.7,36.39,36.39,0,0,0-11,8.86,34.33,34.33,0,0,0-3.41-8.26c-2.28-3.9-7.14-10.52-14.81-12.67A10.58,10.58,0,0,1,84.82,61a12.48,12.48,0,0,1,10-7c3.37-.33,7,1,10.29,3.85A24.16,24.16,0,0,1,112.92,71Z"/><path class="a" d="M63.11,109.36c-.13-.23-.25-.43-.36-.59a1.49,1.49,0,0,0-2.5,1.64l.28.47a9.81,9.81,0,0,0,1,1.55,1.5,1.5,0,1,0,2.21-2A9.42,9.42,0,0,1,63.11,109.36Z"/></svg>