<svg xmlns="http://www.w3.org/2000/svg" width="7.5cm" height="7.5cm" viewBox="0 0 212.6 212.6"><defs><style>.a{fill:#565a81;}</style></defs><path class="a" d="M67.4,130.86a1.5,1.5,0,0,1-.05,2.12,1.48,1.48,0,0,1-1,.42,1.51,1.51,0,0,1-1.09-.47c-.42-.44-.83-.89-1.24-1.36a1.5,1.5,0,1,1,2.24-2C66.62,130,67,130.44,67.4,130.86Z"/><path class="a" d="M0,0V212.6H212.6V0ZM79.37,175.3C63.14,165.21,58.55,149,56.19,134.46c-2.44-15-1.21-24.51,3.54-27.61,6.11-4,18.7,2.38,25.88,10.71,6.36,7.37,10,18.1,7.17,21.26-6.44,7.24-15.12,1.51-19.72-2.54a1.5,1.5,0,1,0-2,2.25c9.25,8.16,18,9,23.94,2.28,2-2.22,2.11-5.75,1.16-9.6a11.31,11.31,0,0,0,3.79-1.7c-.57,1.36-1.09,2.74-1.54,4.13A51,51,0,0,0,96.06,153a1.51,1.51,0,0,0,1.5,1.4h.1a1.49,1.49,0,0,0,1.39-1.6,48.11,48.11,0,0,1,2.23-18.24,50.53,50.53,0,0,1,2.32-5.83c3.66,3.19,9.09,4.56,14.28,4.14s10.28-2.77,12.1-4.31a1.5,1.5,0,0,0-1.94-2.29,21.56,21.56,0,0,1-10.39,3.61c-7,.55-14.56-2.59-15.37-9.65a7.65,7.65,0,0,1,1-4.46l0-.1c3.47-6.44,14.52-13,24.3-15l.3-.07c11.84-2.45,21-.86,25.87,4.46,9.84,10.8.11,48.8-16.8,65.58C123.18,184.4,97.32,186.48,79.37,175.3Zm28-97c1.12,7.72,2.38,16.44,3.9,25.83a34.25,34.25,0,0,0-8.78,7.56,28.48,28.48,0,0,0-3.27-5.59c-1.25-1.71-7.93-10.32-16.31-12.85-.37-11.24-1.05-21.09-1.6-29-1.64-23.88-2.4-34.78,7.33-36C99.86,26.82,102.51,45.11,107.33,78.32ZM82,96.13c5.8,1.75,11.59,7.43,14.79,11.77a23.38,23.38,0,0,1,3.66,7,10.23,10.23,0,0,0-1.13,5.68,12.41,12.41,0,0,0,1.12,4,6,6,0,0,1-2,2.45,8.28,8.28,0,0,1-3.07,1.36,42.64,42.64,0,0,0-7.43-12.74c-4.64-5.39-12.37-10.88-19.51-12.51a9,9,0,0,1,2.44-4.19A10.57,10.57,0,0,1,82,96.13Zm55-65c10.08,1.73,7.93,18.49,4.37,46.24-.74,5.8-1.57,12.34-2.35,19.2a51.14,51.14,0,0,0-11.7,1.16l-.29.06a48.73,48.73,0,0,0-14.32,5.5c2.72-12.3,4.73-23.07,6.5-32.62C124.34,43.15,126.91,29.34,137,31.09Z"/><path class="a" d="M66.23,129.58a1.5,1.5,0,1,0-2.24,2c.41.47.82.92,1.24,1.36a1.51,1.51,0,0,0,1.09.47,1.48,1.48,0,0,0,1-.42,1.5,1.5,0,0,0,.05-2.12C67,130.44,66.62,130,66.23,129.58Z"/></svg>