<svg xmlns="http://www.w3.org/2000/svg" xmlns:xlink="http://www.w3.org/1999/xlink" width="300" height="300" viewBox="0 0 300 300"><defs><style>.a{fill:#fbb03b;}.b{fill:#cc792e;}.c{fill:#e58e35;}.d{fill:#e59a35;}.e{fill:url(#a);}.f{fill:url(#b);}.g{fill:url(#c);}</style><linearGradient id="a" x1="7.28" y1="64.28" x2="87.9" y2="-16.34" gradientUnits="userSpaceOnUse"><stop offset="0.07" stop-color="#e58e35"/><stop offset="0.61" stop-color="#e59a35"/></linearGradient><linearGradient id="b" x1="15.28" y1="228.67" x2="100.38" y2="304.54" gradientUnits="userSpaceOnUse"><stop offset="0.18" stop-color="#e58e35"/><stop offset="0.53" stop-color="#cc792e"/></linearGradient><linearGradient id="c" x1="48.28" y1="150" x2="267.81" y2="150" gradientUnits="userSpaceOnUse"><stop offset="0" stop-color="#fbb03b"/><stop offset="1" stop-color="#d68430"/></linearGradient></defs><path class="a" d="M300,15.11V284.89A15.09,15.09,0,0,1,284.89,300H15.11a15,15,0,0,1-8.9-2.9A13.08,13.08,0,0,1,4.91,296c-.3-.28-.59-.56-.87-.86a13.81,13.81,0,0,1-1.14-1.39,15.06,15.06,0,0,1-2.9-8.9V15.11a15.06,15.06,0,0,1,2.9-8.9A15.11,15.11,0,0,1,15.11,0H284.89A15.12,15.12,0,0,1,300,15.11Z"/><path class="b" d="M295.7,295.47A15.08,15.08,0,0,1,284.9,300H15.12a15,15,0,0,1-8.9-2.9A13.08,13.08,0,0,1,4.92,296c-.3-.28-.59-.56-.87-.86,6.9-8.09,21-23.9,28.5-27.73,10.9-5.54,23.14-7.74,35.72-8.08h0a159.67,159.67,0,0,1,17.47.53c23.75,1.92,47.12,7.85,63.67,7.91H150c20.85-.11,42.91-2.22,61.75-4.69l.25,0c16.5-2.15,30.51-4.59,39-6.19a1.92,1.92,0,0,1,1.57,3.36c-4.56,3.83-8.21,8.69,0,10.24C271.87,274.1,288.24,288.14,295.7,295.47Z"/><path class="c" d="M2.91,6.21A15.06,15.06,0,0,0,0,15.11V284.89a15.06,15.06,0,0,0,2.9,8.9,13.81,13.81,0,0,0,1.14,1.39c.28.3.57.58.87.86,8.27-6.81,24.39-20.76,27.63-28.59,3.87-9.34,6.26-22.69,7.73-37.38h0c.63-6.23,1.08-12.69,1.42-19.2h0c1.17-22.72.85-45.88.85-60.85,0-16.63-1.77-38.65.24-58.52L38,81.29Z"/><path class="d" d="M284.9,0H15.12a15,15,0,0,0-8.9,2.9L81.32,38l.48.23c.83-.26,1.68-.51,2.52-.74h0c20.85-5.79,46.2-5.31,65.66-5.31,14.39,0,45,5.46,72.58,6.56h0c18,.71,34.78-.43,44.86-6.2,17.7-10.12,25.95-20.12,29.68-26.31A15.08,15.08,0,0,0,284.9,0Z"/><path class="d" d="M6.22,2.9A14.85,14.85,0,0,0,2.91,6.21L38,81.29l4.76,10.19c1.59-15.72,5.53-30.09,14.59-39.37,6.36-6.51,14.85-10.9,24.42-13.86L81.32,38Z"/><path class="e" d="M6.22,2.9A14.85,14.85,0,0,0,2.91,6.21L38,81.29l4.76,10.19c1.59-15.72,5.53-30.09,14.59-39.37,6.36-6.51,14.85-10.9,24.42-13.86L81.32,38Z"/><path class="f" d="M114,246.68l-17.34,8.11L85.76,259.9,81.32,262,6.22,297.1A13.08,13.08,0,0,1,4.92,296c-.3-.28-.59-.56-.87-.86a13.81,13.81,0,0,1-1.14-1.39L38,218.67l3.66-7.81h0l8.86-18.94L53.33,186Z"/><path class="a" d="M258.89,233.85a33.31,33.31,0,0,1-25,25c-17.67,4.07-46.6,8.94-83.87,8.94S83.81,263,66.15,258.89a33.31,33.31,0,0,1-25-25c-4.07-17.67-8.94-46.6-8.94-83.87s4.86-66.21,8.93-83.87a33.32,33.32,0,0,1,25-25c17.66-4.07,46.58-8.93,83.87-8.93s66.19,4.85,83.85,8.92a33.31,33.31,0,0,1,25,25c4.07,17.67,8.94,46.6,8.94,83.87S263,216.19,258.89,233.85Z"/><path class="g" d="M259.5,228.13a31.05,31.05,0,0,1-23.31,23.31c-16.47,3.79-43.42,8.32-78.15,8.32s-61.66-4.52-78.12-8.3A31.08,31.08,0,0,1,56.6,228.15c-3.79-16.47-8.32-43.43-8.32-78.15s4.53-61.68,8.32-78.14A31.05,31.05,0,0,1,79.9,48.55c16.46-3.78,43.4-8.31,78.14-8.31s61.67,4.52,78.13,8.3a31.05,31.05,0,0,1,23.31,23.31c3.79,16.47,8.33,43.43,8.33,78.15S263.29,211.67,259.5,228.13Z"/><path d="M113.63,176.51c0-13.59,8.12-23.2,21.38-28.83l-.17-.5c-11.93-5.63-17.06-14.91-17.06-24.19,0-17.06,14.41-28.66,33.3-28.66,20.87,0,31.31,13.09,31.31,26.51,0,9.11-4.47,18.89-17.73,25.18v.5c13.42,5.3,21.71,14.75,21.71,27.84,0,18.72-16.07,31.31-36.62,31.31C127.22,205.67,113.63,192.25,113.63,176.51Zm58-.66c0-13.09-9.11-19.39-23.69-23.53-12.59,3.64-19.39,11.93-19.39,22.2-.49,10.94,7.79,20.55,21.54,20.55C163.17,195.07,171.62,187,171.62,175.85ZM131.53,122c0,10.77,8.12,16.57,20.54,19.88,9.28-3.15,16.4-9.77,16.4-19.55,0-8.61-5.13-17.56-18.22-17.56C138.15,104.77,131.53,112.72,131.53,122Z"/></svg>